<svg viewBox="0 0 200 200" xmlns="http://www.w3.org/2000/svg"><rect width="200" height="200" rx="44" fill="#0F0F12"/><path d="M40,56 Q40,50 46,50 L94,54 L94,150 L46,154 Q40,154 40,148 Z" fill="white"/><path d="M106,54 L154,50 Q160,50 160,56 L160,148 Q160,154 154,154 L106,150 Z" fill="white"/><line x1="100" y1="50" x2="100" y2="154" stroke="#0071E3" stroke-width="1.5" opacity="0.55"/><circle cx="100" cy="47" r="4.5" fill="#0071E3"/><circle cx="100" cy="157" r="4.5" fill="#0071E3"/><line x1="52" y1="82" x2="84" y2="82" stroke="black" stroke-width="2.5" stroke-linecap="round" opacity="0.1"/><line x1="52" y1="93" x2="84" y2="93" stroke="black" stroke-width="2.5" stroke-linecap="round" opacity="0.1"/><line x1="52" y1="104" x2="72" y2="104" stroke="black" stroke-width="2.5" stroke-linecap="round" opacity="0.1"/><rect x="67" y="63" width="12" height="2.5" rx="1.25" fill="#0071E3" opacity="0.5"/><rect x="72" y="58" width="2.5" height="12" rx="1.25" fill="#0071E3" opacity="0.5"/><path d="M112,108 L122,108 L125,95 L128,76 L131,134 L135,108 L152,108" fill="none" stroke="#0071E3" stroke-width="2.5" stroke-linecap="round" stroke-linejoin="round"/></svg>